<svg xmlns="http://www.w3.org/2000/svg" viewBox="0 0 100 100">
  <defs>
    <linearGradient id="gradient" x1="0%" y1="0%" x2="100%" y2="100%">
      <stop offset="0%" style="stop-color:#3b82f6;stop-opacity:1" />
      <stop offset="100%" style="stop-color:#8b5cf6;stop-opacity:1" />
    </linearGradient>
  </defs>
  
  <!-- Fondo circular -->
  <circle cx="50" cy="50" r="48" fill="url(#gradient)"/>
  
  <!-- Bolsa de compras -->
  <path d="M 30 35 L 30 75 C 30 78 32 80 35 80 L 65 80 C 68 80 70 78 70 75 L 70 35 Z" 
        fill="white" opacity="0.95"/>
  
  <!-- Asas de la bolsa -->
  <path d="M 35 35 Q 40 25 45 25 Q 50 25 55 25 Q 60 25 65 35" 
        fill="none" stroke="white" stroke-width="3" stroke-linecap="round" opacity="0.95"/>
  
  <!-- Percha/Prenda (ícono dentro de la bolsa) -->
  <path d="M 42 48 L 42 55 M 58 48 L 58 55 M 42 55 L 58 55 M 50 43 Q 52 43 52 45 Q 52 47 50 47 Q 48 47 48 45 Q 48 43 50 43" 
        fill="none" stroke="url(#gradient)" stroke-width="2.5" stroke-linecap="round"/>
  
  <!-- Detalles decorativos -->
  <circle cx="42" cy="62" r="1.5" fill="url(#gradient)" opacity="0.6"/>
  <circle cx="50" cy="62" r="1.5" fill="url(#gradient)" opacity="0.6"/>
  <circle cx="58" cy="62" r="1.5" fill="url(#gradient)" opacity="0.6"/>
</svg>

